Patient4_TMGait_0pt2_02_left_24_EMG.mot
version=1
nRows=26
nColumns=33
inDegrees=no
endheader
time	1LAddLong	2LGlutMax	3LGlutMed	4LIliopsoas	5LSemiMemb	6LBicFemLong	7LRecFem	8LVastMed	9LVastLat	10LGasMed	11LTibAnt	12lTibPost	13LPeroneusLong	14LSol	15LExtDigLong	16LFlexDigLong	17RAddLong	18RGlutMax	19RGlutMed	20RIliopsoas	21RSemiMemb	22RBicFemLong	23RRecFem	24RVastMed	25RVastLat	26RGasMed	27RTibAnt	28RTibPost	29RPeroneusLong	30RSol	31RExtDigLong	32RFlexDigLong
53.88	0.010986	-0.049896	-0.10971	-0.006256	0.028992	0.024719	0.017395	0.011597	-0.067444	-0.015564	-0.013123	0.005951	-0.032349	-0.073853	0.028229	-0.001831	0.10284	-0.20294	0.61569	0.028381	0.032043	-0.10346	0.61752	-0.1152	-0.19119	-0.012054	-0.27374	-0.005951	-0.1648	-0.19287	-0.010223	-0.002899
53.881	0.006714	-0.055237	-0.19898	0.023804	0.029144	0.033264	0.027618	0.01358	-0.070496	-0.044861	-0.063324	0.005798	0.043793	-0.044098	-0.039063	0.002899	0.077667	-0.20508	0.51437	0.040436	-0.15182	-0.019836	0.42923	-0.28198	-0.40268	0.000458	1.2241	-0.003662	-0.10208	-0.19348	-0.001526	-0.00946
53.882	0.010376	-0.072784	-0.1944	0.032501	0.023651	0.059662	0.012207	0.011597	-0.071716	-0.016785	-0.080719	0.001373	0.066528	0.007324	0.022278	0.007324	0.1236	-0.12589	0.58289	0.019989	-0.16876	0.009918	0.16495	-0.072479	-0.52719	0.019226	0.90057	-0.005035	0.25925	-0.27023	-0.005188	0.000458
53.883	-0.00351	-0.071716	0.043335	-0.010986	0.038605	0.039215	-0.00061	0.006409	-0.059357	0.021057	0.017548	0.00473	-0.03479	0.008392	0.1831	0.007172	0.099335	-0.15732	0.6311	-0.10422	-0.013275	-0.021362	-0.054626	0.088043	-0.4982	0.013885	0.2182	0.005646	0.19379	-0.24033	-0.000916	0.001373
53.884	-0.001068	-0.022888	0.1239	-0.007324	0.023956	0.048676	0.011597	0.003662	-0.059204	0.030212	0.14221	0.002289	-0.075531	0.006714	0.1648	0.016479	0.058594	-0.19363	0.32394	-0.18723	0.048218	0.02655	-0.13092	0.029449	-0.24109	0.002289	-0.81848	-0.010529	-0.055389	-0.028992	-0.004578	-0.002747
53.885	-0.006866	-0.029602	0.20767	-0.005188	0.032043	0.056458	0.028687	0.007019	-0.059967	-0.012817	0.1207	0.001526	-0.026398	-0.001373	0.049591	0.004883	-0.008545	-0.17975	0.067444	-0.17822	-0.062714	0.11307	-0.17288	0.047913	0.25803	-0.005035	-0.83984	-0.004578	-0.031738	0.11337	-0.001984	-0.009766
53.886	0.001526	-0.021973	0.033264	-0.003662	0.018616	0.046387	0.007477	0.002289	-0.055237	-0.027466	-0.066071	0.001984	0.039673	-0.029297	0.19058	0.005035	-0.034027	-0.13153	-0.048676	-0.08316	-0.2092	0.2092	0.054626	-0.061188	0.29755	0.004883	-0.18539	-0.003662	-0.009766	0.15045	-0.004883	-0.00473
53.887	0.003815	-0.032654	0.089264	-0.029297	0.038147	0.036316	0.002899	0.006104	-0.049744	0.000763	-0.064392	0.009308	-0.007935	-0.012665	0.11398	0.010834	0.003967	-0.15335	-0.35126	0.09491	-0.19791	0.19363	0.2153	-0.083923	0.36438	0.007629	-0.02655	-0.009308	0.053711	0.16892	-0.002136	-0.005493
53.888	0.003662	-0.026245	0.1152	-0.024567	0.041504	0.031281	0.00061	0.000305	-0.042419	0.017853	-0.10101	0.011749	-0.0354	0.016174	0.016632	0.001526	-0.046692	-0.16495	-0.32272	0.21622	-0.092621	0.20737	0.24078	-0.056915	0.26093	0.001221	-0.21133	-0.005646	0.082245	0.096741	-0.000916	-0.005646
53.889	0.004883	-0.051422	0.11932	0.000153	0.01236	0.029144	0.002747	0.005341	-0.029144	0.003815	-0.025482	0.005188	-0.038452	0.051422	0.31357	0.010986	-0.10101	-0.18051	-0.11856	0.051117	0.023041	0.15167	0.066223	-0.13351	0.078735	0.001526	-0.079803	-0.003357	-0.00061	0.008392	-0.000305	-0.011902
53.89	0.002441	-0.023651	0.14572	0.027618	0.016022	0.042114	0.017548	0.001221	-0.032806	-0.007019	-0.042725	-0.008545	-0.015411	0.09552	0.10056	0.001526	-0.10925	-0.1619	0.2298	-0.13626	-0.2182	0.097809	0.031128	0.0383	0.012054	-0.001068	0.14755	-0.010223	-0.11337	0.089264	-0.005035	-0.010071
53.891	0.008087	-0.059357	-0.015869	0.016022	0.010834	0.02594	0.01236	0.001526	-0.02655	-0.014343	0.015869	0.006714	0.012817	-0.007935	0.054321	0.009155	-0.10239	-0.14908	0.014954	-0.089111	-0.32867	0.10269	0.031433	0.84854	-0.089874	-0.003967	0.28046	-0.004425	-0.093536	0.18799	-0.002899	-0.007019
53.892	0.007019	-0.023346	-0.069275	0.008545	0.025024	0.02121	0.02655	0.006409	-0.013885	-0.013885	0.071259	0.000763	0.001526	-0.017395	-0.00946	-0.000763	-0.14267	-0.1181	-0.099792	0.037994	0.17532	0.032349	0.59647	1.0324	-0.27725	-0.003967	0.14313	-0.00412	-0.080719	0.15961	0.002747	-0.003662
53.893	0.004578	-0.024719	-0.06546	0.005188	0.014954	0.017395	0.019836	0.003967	-0.011139	-0.002747	0.041809	-0.001068	-0.00824	-0.015869	-0.22797	-0.007629	-0.16296	-0.1471	-0.077972	0.21622	0.48065	-0.073547	0.98541	1.6501	-0.51102	-0.003662	0.19562	-0.001526	-0.080109	0.1474	-0.00351	-0.00824
53.894	0.001984	-0.026093	-0.013123	-0.015259	0.024567	0.011444	0.026703	0.001831	-0.02243	0.00824	0.041962	-0.003662	-0.022278	-0.068054	-0.19226	-0.00885	-0.086975	-0.1059	0.15488	0.28946	0.25864	-0.26886	0.82047	1.7857	-0.48126	0.00351	0.35797	-0.004425	-0.028992	0.072479	-0.008698	-0.007019
53.895	-0.001221	-0.037231	0.01358	-0.012665	0.022278	0.014191	0.029144	0.006714	-0.013733	0.006104	0.050507	-0.001068	-0.004883	-0.002136	-0.15106	0.005341	0.022583	-0.099182	0.056915	0.18417	0.081329	-0.34653	0.67535	1.6461	-0.38025	0.003967	0.30365	-0.004883	-0.033569	0.014648	-0.013123	0.005341
53.896	-0.002136	-0.032501	0.07019	-0.008698	0.013733	0.033264	0.038605	0.005493	-0.014343	-0.024109	-0.053558	0.000458	0.034332	-0.010986	-0.030518	0.001068	0.039673	-0.090637	-0.32394	0.030518	0.072327	-0.19943	0.70877	0.88409	-0.18005	0.001373	0.0177	-0.005341	-0.091248	0.052032	-0.001068	-0.007324
53.897	0.001221	-0.033264	0.066986	0.009003	0.025787	0.026245	0.033722	0.00473	-0.018616	-0.010223	-0.088654	0.011902	-0.000916	-0.047302	0.15152	0.00351	-0.013428	-0.02533	-0.55313	-0.046234	-0.006714	-0.024414	0.55527	0.46646	-0.32577	0.001221	0.15213	-0.004272	-0.16434	0.006866	-0.003357	0.001984
53.898	-0.004578	-0.023651	0.013123	0.027008	0.011292	0.019073	0.037994	0.005493	-0.015717	0	0.062866	-0.001526	-0.054016	-0.0914	0.14648	0.005035	-0.011597	-0.033875	-0.53482	-0.067139	-0.007324	0.047913	-0.16007	-0.26703	-0.26733	-0.010071	0.21255	-0.006256	-0.17624	-0.020905	-0.002441	-0.007935
53.899	0.024109	0.00061	-0.060577	0.016479	0.010376	0.004425	0.02121	0.014496	-0.010376	-0.005341	0.074768	0.004272	-0.017853	-0.050964	0.075989	0.000916	0.017395	-0.038757	-0.29648	-0.06958	0.032959	0.031281	-0.68787	-1.0721	-0.080414	-0.033264	0.075378	-0.00351	-0.16541	0.000305	-0.003815	-0.00946
53.9	-0.019073	0.007782	-0.12543	0.000763	0.010529	-0.002289	0.026093	0.001678	-0.001221	-0.024414	-0.055695	0.002747	-0.01236	-0.022888	0.1651	0.00885	0.092468	-0.02182	-0.099487	-0.02655	-0.007782	-0.027008	-0.78003	-1.4432	0.24628	-0.002441	0.18402	-0.002899	-0.11856	0.002136	-0.004272	-0.000458
53.901	-0.039368	0.021667	-0.13306	0.002289	0.022125	-0.010376	0.03952	-0.003204	0.019073	-0.020294	-0.13565	0.001678	-0.011444	0.000763	0.037384	-0.004272	0.081635	-0.12848	0.20676	-0.079193	-0.041046	0.006409	-0.67352	-2.1036	0.87967	0.011902	0.3389	-0.009003	-0.045929	-0.012207	-0.001373	-0.008698
53.902	-0.016632	-0.000458	-0.037842	0.002136	0.019379	-0.020142	0.044861	0.007629	0.005798	-0.003662	-0.08728	0.00351	-0.031891	-0.001373	-0.036469	-0.001678	0.11444	-0.17227	0.61706	-0.18112	-0.073395	-0.019989	0.027618	-1.7722	0.92682	0.0177	0.26184	-0.002899	0.033722	-0.049896	-0.001068	-0.014343
53.903	0.022278	0.005798	0.10315	-0.000916	0.019073	-0.009003	0.039978	0.005951	0.014801	-0.016022	0.080566	0.002899	-0.012512	0.030823	0.042419	0.00412	0.061035	-0.1033	0.77286	-0.16724	-0.047302	0.006866	0.046387	-1.1807	0.67871	0.014038	0.051422	-0.002594	0.093689	-0.06897	-0.004883	-0.013733
53.904	0.003662	0.014801	0.041962	-0.016327	0.012054	-0.014496	0.042877	0.005035	0.015259	-0.037079	0.22964	-0.007935	-0.024567	0.025635	0.1149	0.001831	0.034485	-0.020905	0.32837	0.040283	-0.014343	0.03067	0.1152	-0.69672	0.40863	-0.001373	-0.3598	-0.004272	0.015564	-0.04837	-0.001984	-0.012512
53.905	0.009308	-0.018005	0.019379	-0.01297	0.0177	-0.028534	0.014191	0.004425	0.024719	-0.019989	-0.06958	-0.003967	-0.018158	0.016479	-0.21866	-0.001373	0.012512	-0.062866	0.21835	0.097351	0.00473	0.040436	0.24338	-0.21545	0.2269	-0.003662	-0.36407	-0.002899	-0.027618	-0.04776	-0.000305	-0.018616
